<svg xmlns="http://www.w3.org/2000/svg" width="24" height="25" viewBox="0 0 24 25" fill="none">
    <path
        d="M11 12.2593H13C13.5304 12.2593 14.0391 12.0486 14.4142 11.6735C14.7893 11.2984 15 10.7897 15 10.2593C15 9.72884 14.7893 9.22014 14.4142 8.84506C14.0391 8.46999 13.5304 8.25928 13 8.25928H10C9.4 8.25928 8.9 8.45928 8.6 8.85928L3 14.2593"
        stroke="#1045AD" stroke-width="2" stroke-linecap="round" stroke-linejoin="round" />
    <path
        d="M7 18.2593L8.6 16.8593C8.9 16.4593 9.4 16.2593 10 16.2593H14C15.1 16.2593 16.1 15.8593 16.8 15.0593L21.4 10.6593C21.7859 10.2946 22.0111 9.7916 22.0261 9.26087C22.0411 8.73015 21.8447 8.2152 21.48 7.82931C21.1153 7.44342 20.6123 7.2182 20.0816 7.20319C19.5508 7.18819 19.0359 7.38463 18.65 7.7493L14.45 11.6493"
        stroke="#1045AD" stroke-width="2" stroke-linecap="round" stroke-linejoin="round" />
    <path d="M2 13.2593L8 19.2593" stroke="#1045AD" stroke-width="2" stroke-linecap="round"
        stroke-linejoin="round" />
</svg>